<svg width="68" height="80" viewBox="0 0 68 80" fill="none" xmlns="http://www.w3.org/2000/svg">
<path d="M34 0.333344C17.3333 0.333344 0.666668 2.41668 0.666668 17V56.5833C0.666668 60.4511 2.20312 64.1604 4.93803 66.8953C7.67293 69.6302 11.3823 71.1667 15.25 71.1667L9 77.4167V79.5H18.2917L26.625 71.1667H42.3333L50.6667 79.5H59V77.4167L52.75 71.1667C56.6177 71.1667 60.3271 69.6302 63.062 66.8953C65.7969 64.1604 67.3333 60.4511 67.3333 56.5833V17C67.3333 2.41668 52.4167 0.333344 34 0.333344ZM15.25 62.8333C13.5924 62.8333 12.0027 62.1749 10.8306 61.0028C9.65848 59.8307 9 58.2409 9 56.5833C9 54.9257 9.65848 53.336 10.8306 52.1639C12.0027 50.9918 13.5924 50.3333 15.25 50.3333C16.9076 50.3333 18.4973 50.9918 19.6694 52.1639C20.8415 53.336 21.5 54.9257 21.5 56.5833C21.5 58.2409 20.8415 59.8307 19.6694 61.0028C18.4973 62.1749 16.9076 62.8333 15.25 62.8333ZM29.8333 33.6667H9V17H29.8333V33.6667ZM38.1667 33.6667V17H59V33.6667H38.1667ZM52.75 62.8333C51.0924 62.8333 49.5027 62.1749 48.3306 61.0028C47.1585 59.8307 46.5 58.2409 46.5 56.5833C46.5 54.9257 47.1585 53.336 48.3306 52.1639C49.5027 50.9918 51.0924 50.3333 52.75 50.3333C54.4076 50.3333 55.9973 50.9918 57.1694 52.1639C58.3415 53.336 59 54.9257 59 56.5833C59 58.2409 58.3415 59.8307 57.1694 61.0028C55.9973 62.1749 54.4076 62.8333 52.75 62.8333Z" fill="#EE3B7A"/>
</svg>
