<svg width="100" height="100" viewBox="0 0 100 100" fill="none" xmlns="http://www.w3.org/2000/svg">
<path d="M93.4267 37.9526C91.9095 36.3707 90.3448 34.7371 89.8319 33.5C89.375 32.3966 89.3405 30.125 89.3103 28.125C89.2457 23.8147 89.1638 18.4526 85.3534 14.6466C81.5431 10.8405 76.1853 10.7672 71.875 10.6897C69.875 10.6595 67.6034 10.625 66.5 10.1681C65.2629 9.65517 63.6293 8.09052 62.0474 6.57328C58.9957 3.64655 55.194 0 50 0C44.806 0 41.0043 3.64655 37.9526 6.57328C36.3707 8.09052 34.7371 9.65517 33.5 10.1681C32.3966 10.625 30.125 10.6595 28.125 10.6897C23.8147 10.7759 18.4526 10.8362 14.6552 14.6552C10.8578 18.4741 10.7759 23.8147 10.6897 28.125C10.6595 30.125 10.625 32.3966 10.1681 33.5C9.65517 34.7371 8.09052 36.3707 6.57328 37.9526C3.64655 41.0043 0 44.8276 0 50C0 55.1724 3.64655 58.9957 6.57328 62.069C8.09052 63.6509 9.65517 65.2845 10.1681 66.5216C10.625 67.625 10.6595 69.8966 10.6897 71.8966C10.7543 76.2069 10.8362 81.569 14.6466 85.375C18.4569 89.181 23.8147 89.2543 28.125 89.3319C30.125 89.3621 32.3966 89.3966 33.5 89.8534C34.7371 90.3664 36.3707 91.931 37.9526 93.4483C41.0043 96.3534 44.8276 100 50 100C55.1724 100 58.9957 96.3534 62.0474 93.4267C63.6293 91.9095 65.2629 90.3448 66.5 89.8319C67.6034 89.375 69.875 89.3405 71.875 89.3103C76.1853 89.2457 81.5474 89.1638 85.3534 85.3534C89.1595 81.5431 89.2328 76.1853 89.3103 71.875C89.3405 69.875 89.375 67.6034 89.8319 66.5C90.3448 65.2629 91.9095 63.6293 93.4267 62.0474C96.3534 58.9957 100 55.194 100 50C100 44.806 96.3534 41.0043 93.4267 37.9526ZM85.9612 54.8879C83.8836 57.0431 81.5302 59.5086 80.2759 62.5431C79.0603 65.4741 79.0129 68.6466 78.9828 71.7198C78.9483 74.0302 78.9009 77.1983 78.056 78.0388C77.2112 78.8793 74.0474 78.931 71.7371 78.9655C68.6638 79.0129 65.4914 79.0603 62.5603 80.2586C59.5431 81.5129 57.0733 83.8664 54.9052 85.944C53.3535 87.431 51.0345 89.6552 50 89.6552C48.9655 89.6552 46.6466 87.431 45.1121 85.9612C42.9569 83.8836 40.4914 81.5302 37.4569 80.2759C34.5259 79.0603 31.3534 79.0129 28.2802 78.9828C25.9698 78.9483 22.8017 78.9009 21.9612 78.056C21.1207 77.2112 21.069 74.0474 21.0345 71.7371C20.9871 68.6638 20.9397 65.4914 19.7414 62.5603C18.4871 59.5431 16.1336 57.0733 14.056 54.9052C12.569 53.3535 10.3448 51.0345 10.3448 50C10.3448 48.9655 12.569 46.6466 14.0388 45.1121C16.1164 42.9569 18.4698 40.4914 19.7241 37.4569C20.9397 34.5259 20.9871 31.3534 21.0172 28.2802C21.069 25.9698 21.1207 22.8017 21.9828 21.9828C22.8448 21.1638 25.9914 21.0905 28.3017 21.056C31.375 21.0086 34.5474 20.9612 37.4784 19.7629C40.4957 18.5086 42.9655 16.1552 45.1336 14.0776C46.6465 12.569 48.9655 10.3448 50 10.3448C51.0345 10.3448 53.3534 12.569 54.8879 14.0388C57.0431 16.1164 59.5086 18.4698 62.5431 19.7241C65.4741 20.9397 68.6466 20.9871 71.7198 21.0172C74.0302 21.0517 77.1983 21.0991 78.0388 21.944C78.8793 22.7888 78.931 25.9526 78.9655 28.2629C79.0129 31.3362 79.0603 34.5086 80.2586 37.4397C81.5129 40.4569 83.8664 42.9267 85.944 45.0948C87.4138 46.6293 89.6379 48.9483 89.6379 49.9828C89.6379 51.0172 87.431 53.3534 85.9612 54.8879ZM70.9009 35.9957C71.3831 36.4762 71.7657 37.0472 72.0267 37.6759C72.2878 38.3047 72.4222 38.9787 72.4222 39.6595C72.4222 40.3402 72.2878 41.0143 72.0267 41.643C71.7657 42.2717 71.3831 42.8427 70.9009 43.3233L46.7629 67.4612C46.2824 67.9434 45.7114 68.326 45.0827 68.5871C44.454 68.8481 43.7799 68.9825 43.0991 68.9825C42.4184 68.9825 41.7443 68.8481 41.1156 68.5871C40.4869 68.326 39.9159 67.9434 39.4353 67.4612L29.0905 57.1164C28.6094 56.6352 28.2277 56.0641 27.9673 55.4354C27.7069 54.8068 27.5729 54.133 27.5729 53.4526C27.5729 52.7722 27.7069 52.0984 27.9673 51.4698C28.2277 50.8411 28.6094 50.2699 29.0905 49.7888C29.5717 49.3077 30.1428 48.926 30.7715 48.6656C31.4001 48.4052 32.0739 48.2712 32.7543 48.2712C33.4347 48.2712 34.1085 48.4052 34.7371 48.6656C35.3658 48.926 35.937 49.3077 36.4181 49.7888L43.1034 56.4655L63.5819 35.9828C64.0631 35.5027 64.6343 35.1222 65.2626 34.863C65.891 34.6038 66.5643 34.471 67.2441 34.4722C67.9238 34.4734 68.5966 34.6086 69.2241 34.87C69.8515 35.1314 70.4213 35.5139 70.9009 35.9957Z" fill="#EE3B7A"/>
</svg>
