<svg width="68" height="76" viewBox="0 0 68 76" fill="none" xmlns="http://www.w3.org/2000/svg">
<path d="M21.5 8.83332C20.3949 8.83332 19.3351 9.27231 18.5537 10.0537C17.7723 10.8351 17.3333 11.8949 17.3333 13C17.3333 14.1051 17.7723 15.1649 18.5537 15.9463C19.3351 16.7277 20.3949 17.1667 21.5 17.1667C22.6051 17.1667 23.6649 16.7277 24.4463 15.9463C25.2277 15.1649 25.6667 14.1051 25.6667 13C25.6667 11.8949 25.2277 10.8351 24.4463 10.0537C23.6649 9.27231 22.6051 8.83332 21.5 8.83332ZM9.70832 8.83332C10.5692 6.3936 12.1656 4.28096 14.2775 2.78661C16.3894 1.29226 18.9129 0.489777 21.5 0.489777C24.0871 0.489777 26.6106 1.29226 28.7225 2.78661C30.8344 4.28096 32.4308 6.3936 33.2917 8.83332H63.1667C64.2717 8.83332 65.3315 9.27231 66.1129 10.0537C66.8943 10.8351 67.3333 11.8949 67.3333 13C67.3333 14.1051 66.8943 15.1649 66.1129 15.9463C65.3315 16.7277 64.2717 17.1667 63.1667 17.1667H33.2917C32.4308 19.6064 30.8344 21.719 28.7225 23.2134C26.6106 24.7077 24.0871 25.5102 21.5 25.5102C18.9129 25.5102 16.3894 24.7077 14.2775 23.2134C12.1656 21.719 10.5692 19.6064 9.70832 17.1667H4.83332C3.72825 17.1667 2.66845 16.7277 1.88705 15.9463C1.10564 15.1649 0.666656 14.1051 0.666656 13C0.666656 11.8949 1.10564 10.8351 1.88705 10.0537C2.66845 9.27231 3.72825 8.83332 4.83332 8.83332H9.70832ZM46.5 33.8333C45.3949 33.8333 44.3351 34.2723 43.5537 35.0537C42.7723 35.8351 42.3333 36.8949 42.3333 38C42.3333 39.1051 42.7723 40.1649 43.5537 40.9463C44.3351 41.7277 45.3949 42.1667 46.5 42.1667C47.6051 42.1667 48.6649 41.7277 49.4463 40.9463C50.2277 40.1649 50.6667 39.1051 50.6667 38C50.6667 36.8949 50.2277 35.8351 49.4463 35.0537C48.6649 34.2723 47.6051 33.8333 46.5 33.8333ZM34.7083 33.8333C35.5692 31.3936 37.1656 29.281 39.2775 27.7866C41.3894 26.2923 43.9128 25.4898 46.5 25.4898C49.0871 25.4898 51.6106 26.2923 53.7225 27.7866C55.8344 29.281 57.4308 31.3936 58.2917 33.8333H63.1667C64.2717 33.8333 65.3315 34.2723 66.1129 35.0537C66.8943 35.8351 67.3333 36.8949 67.3333 38C67.3333 39.1051 66.8943 40.1649 66.1129 40.9463C65.3315 41.7277 64.2717 42.1667 63.1667 42.1667H58.2917C57.4308 44.6064 55.8344 46.719 53.7225 48.2134C51.6106 49.7077 49.0871 50.5102 46.5 50.5102C43.9128 50.5102 41.3894 49.7077 39.2775 48.2134C37.1656 46.719 35.5692 44.6064 34.7083 42.1667H4.83332C3.72825 42.1667 2.66845 41.7277 1.88705 40.9463C1.10564 40.1649 0.666656 39.1051 0.666656 38C0.666656 36.8949 1.10564 35.8351 1.88705 35.0537C2.66845 34.2723 3.72825 33.8333 4.83332 33.8333H34.7083ZM21.5 58.8333C20.3949 58.8333 19.3351 59.2723 18.5537 60.0537C17.7723 60.8351 17.3333 61.8949 17.3333 63C17.3333 64.1051 17.7723 65.1649 18.5537 65.9463C19.3351 66.7277 20.3949 67.1667 21.5 67.1667C22.6051 67.1667 23.6649 66.7277 24.4463 65.9463C25.2277 65.1649 25.6667 64.1051 25.6667 63C25.6667 61.8949 25.2277 60.8351 24.4463 60.0537C23.6649 59.2723 22.6051 58.8333 21.5 58.8333ZM9.70832 58.8333C10.5692 56.3936 12.1656 54.281 14.2775 52.7866C16.3894 51.2923 18.9129 50.4898 21.5 50.4898C24.0871 50.4898 26.6106 51.2923 28.7225 52.7866C30.8344 54.281 32.4308 56.3936 33.2917 58.8333H63.1667C64.2717 58.8333 65.3315 59.2723 66.1129 60.0537C66.8943 60.8351 67.3333 61.8949 67.3333 63C67.3333 64.1051 66.8943 65.1649 66.1129 65.9463C65.3315 66.7277 64.2717 67.1667 63.1667 67.1667H33.2917C32.4308 69.6064 30.8344 71.719 28.7225 73.2134C26.6106 74.7077 24.0871 75.5102 21.5 75.5102C18.9129 75.5102 16.3894 74.7077 14.2775 73.2134C12.1656 71.719 10.5692 69.6064 9.70832 67.1667H4.83332C3.72825 67.1667 2.66845 66.7277 1.88705 65.9463C1.10564 65.1649 0.666656 64.1051 0.666656 63C0.666656 61.8949 1.10564 60.8351 1.88705 60.0537C2.66845 59.2723 3.72825 58.8333 4.83332 58.8333H9.70832Z" fill="#EE3B7A"/>
</svg>
